<?xml version="1.0" encoding="UTF-8" standalone="no"?>
<!DOCTYPE svg PUBLIC "-//W3C//DTD SVG 1.1//EN" "http://www.w3.org/Graphics/SVG/1.1/DTD/svg11.dtd">
<svg version="1.1" xmlns="http://www.w3.org/2000/svg" xmlns:xlink="http://www.w3.org/1999/xlink" preserveAspectRatio="xMidYMid meet" viewBox="0 0 640 640" width="640" height="640"><defs><path d="M206.46 134.02C206.99 192.1 285.52 238.5 381.89 237.63C385.52 237.6 389.15 237.51 392.7 237.33C407.74 279.15 457.1 309.56 515.39 309.04C515.39 309.04 515.39 309.04 515.39 309.04C585.25 308.41 641.49 263.61 641 208.96C640.77 184.14 638.99 -14.4 638.76 -39.22C638.27 -93.85 581.24 -137.65 511.37 -137.02C511.37 -137.02 511.37 -137.02 511.37 -137.02C450.46 -136.47 399.92 -102.34 388.31 -57.4C322.3 -52.79 271.06 -18.72 271.43 22.15C271.51 31.13 274.08 39.72 278.73 47.73C234.69 67.23 206.14 98.72 206.46 134.02Z" id="d3NRg4Q4r"></path><path d="M89.95 346.79C238.88 384.62 386.32 310.28 419.24 180.71C420.48 175.83 421.56 170.91 422.4 166.03C534.98 173.66 630.84 127.76 650.76 49.39C650.76 49.39 650.76 49.39 650.76 49.39C674.62 -44.54 580.4 -149.54 440.29 -185.13C376.66 -201.3 -132.38 -330.62 -196.01 -346.78C-336.09 -382.37 -469.02 -335.08 -492.89 -241.15C-492.89 -241.15 -492.89 -241.15 -492.89 -241.15C-513.69 -159.26 -444.73 -68.97 -333.9 -23.61C-346.15 67.8 -277.59 158.99 -172.82 185.61C-149.78 191.46 -126.84 193.72 -104.65 192.81C-70.78 264.7 -0.55 323.79 89.95 346.79Z" id="b1jtghHvsT"></path><path d="M-41.84 129.86C3.1 153.34 63.79 125.96 93.71 68.69C94.84 66.54 95.91 64.35 96.9 62.18C133.92 70.43 173.02 53.73 191.12 19.09C191.12 19.09 191.12 19.09 191.12 19.09C212.81 -22.43 196.12 -73.99 153.84 -96.07C134.64 -106.1 -18.98 -186.34 -38.18 -196.38C-80.45 -218.46 -132.31 -202.71 -154 -161.19C-154 -161.19 -154 -161.19 -154 -161.19C-172.91 -124.99 -162.64 -81.17 -131.68 -55.91C-149.07 -15.04 -139.07 29.17 -107.45 45.69C-100.5 49.32 -93.06 51.32 -85.42 51.85C-84.37 85.85 -69.15 115.6 -41.84 129.86Z" id="guASgbtwK"></path></defs><g><g><g><use xlink:href="#d3NRg4Q4r" opacity="1" fill="#3992d1" fill-opacity="1"></use></g><g><use xlink:href="#b1jtghHvsT" opacity="1" fill="#27322d" fill-opacity="1"></use></g><g><use xlink:href="#guASgbtwK" opacity="1" fill="#de9467" fill-opacity="1"></use></g></g></g></svg>