<?xml version="1.0" encoding="UTF-8" standalone="no"?>
<!DOCTYPE svg PUBLIC "-//W3C//DTD SVG 1.1//EN" "http://www.w3.org/Graphics/SVG/1.1/DTD/svg11.dtd">
<svg version="1.1" xmlns="http://www.w3.org/2000/svg" xmlns:xlink="http://www.w3.org/1999/xlink" preserveAspectRatio="xMidYMid meet" viewBox="0 0 640 640" width="400" height="400"><defs><path d="M233.47 60.69L234.1 60.38L234.73 60.11L235.36 59.88L235.99 59.69L236.63 59.53L237.26 59.41L237.89 59.33L238.53 59.28L239.16 59.26L239.8 59.28L240.43 59.33L241.07 59.4L241.71 59.51L242.35 59.65L243 59.82L243.64 60.01L244.29 60.23L244.94 60.48L245.59 60.74L246.24 61.04L246.9 61.36L247.55 61.69L248.21 62.05L248.88 62.43L249.54 62.83L250.21 63.25L250.88 63.69L251.56 64.14L252.24 64.61L252.92 65.09L253.6 65.58L254.29 66.09L254.98 66.62L255.68 67.15L256.38 67.69L257.08 68.25L257.79 68.81L258.5 69.38L300.39 107.25L305.26 105.75L316.28 102.83L327.33 100.34L338.39 98.28L349.47 96.65L350.4 96.54L379.82 43.32L380.34 42.49L380.85 41.66L381.37 40.85L381.88 40.05L382.39 39.26L382.91 38.48L383.42 37.71L383.93 36.96L384.44 36.22L384.96 35.5L385.47 34.79L385.99 34.11L386.5 33.44L387.02 32.78L387.55 32.15L388.07 31.54L388.6 30.95L389.14 30.38L389.67 29.83L390.21 29.3L390.76 28.8L391.31 28.33L391.87 27.88L392.43 27.46L393 27.06L393.57 26.69L394.15 26.36L394.74 26.05L395.33 25.77L395.94 25.52L396.55 25.31L397.17 25.12L397.79 24.97L398.43 24.86L399.08 24.78L399.74 24.74L400.4 24.73L401.08 24.76L401.77 24.83L402.47 24.94L504.59 43.46L505.28 43.61L505.95 43.78L506.59 43.99L507.21 44.23L507.8 44.5L508.36 44.8L508.9 45.13L509.42 45.49L509.92 45.87L510.39 46.28L510.84 46.72L511.27 47.19L511.68 47.68L512.06 48.19L512.43 48.73L512.77 49.29L513.1 49.87L513.4 50.48L513.69 51.11L513.96 51.75L514.21 52.42L514.44 53.11L514.65 53.81L514.85 54.54L515.03 55.28L515.19 56.03L515.34 56.81L515.47 57.6L515.59 58.4L515.69 59.22L515.78 60.05L515.85 60.89L515.91 61.75L515.96 62.61L515.99 63.49L516.02 64.38L516.03 65.28L516.03 66.18L516.01 67.1L515.99 68.02L516.12 126.51L517.21 127.08L526.46 132.39L535.49 138.1L544.29 144.19L552.85 150.67L556.53 153.72L613.56 133.79L614.45 133.45L615.34 133.13L616.22 132.82L617.1 132.52L617.97 132.23L618.84 131.96L619.71 131.71L620.56 131.47L621.41 131.25L622.25 131.04L623.08 130.85L623.91 130.68L624.72 130.53L625.53 130.4L626.32 130.29L627.11 130.19L627.88 130.12L628.64 130.08L629.39 130.05L630.13 130.05L630.85 130.07L631.56 130.11L632.26 130.18L632.94 130.27L633.61 130.39L634.26 130.54L634.89 130.71L635.51 130.91L636.11 131.14L636.69 131.39L637.26 131.68L637.8 132L638.33 132.34L638.83 132.72L639.32 133.13L639.79 133.57L640.23 134.04L640.65 134.55L641.05 135.09L641.43 135.67L694.56 221.64L694.9 222.23L695.21 222.83L695.47 223.43L695.69 224.04L695.87 224.65L696.02 225.26L696.13 225.87L696.2 226.49L696.23 227.11L696.23 227.74L696.2 228.37L696.13 229L696.03 229.64L695.9 230.28L695.73 230.93L695.54 231.58L695.32 232.23L695.08 232.89L694.8 233.55L694.5 234.21L694.18 234.88L693.83 235.56L693.45 236.23L693.06 236.91L692.64 237.6L692.2 238.29L691.74 238.98L691.27 239.68L690.77 240.39L690.26 241.09L689.73 241.8L689.19 242.52L688.63 243.24L688.06 243.97L687.47 244.7L686.88 245.43L686.27 246.17L685.65 246.92L685.03 247.67L684.39 248.42L642.68 293.13L643.8 297.86L645.87 308.58L647.5 319.36L648.7 330.2L649.45 341.08L649.48 342.21L700.8 367.08L701.62 367.45L702.43 367.83L703.23 368.21L704.01 368.6L704.78 369L705.54 369.4L706.28 369.81L707.01 370.23L707.72 370.66L708.42 371.09L709.09 371.53L709.75 371.98L710.39 372.44L711.01 372.91L711.6 373.38L712.18 373.86L712.73 374.35L713.26 374.85L713.77 375.36L714.25 375.87L714.71 376.4L715.14 376.93L715.54 377.47L715.91 378.02L716.26 378.58L716.58 379.15L716.87 379.73L717.13 380.31L717.35 380.91L717.55 381.52L717.71 382.13L717.84 382.76L717.93 383.39L717.99 384.04L718.02 384.69L718 385.36L717.95 386.03L717.87 386.72L717.74 387.41L717.57 388.12L690.58 491.17L690.38 491.87L690.15 492.54L689.89 493.18L689.6 493.8L689.28 494.39L688.94 494.96L688.56 495.51L688.17 496.03L687.74 496.53L687.3 497.01L686.82 497.47L686.32 497.9L685.8 498.32L685.26 498.72L684.69 499.1L684.1 499.46L683.49 499.8L682.86 500.13L682.21 500.44L681.54 500.74L680.85 501.02L680.14 501.29L679.41 501.55L678.67 501.79L677.91 502.02L677.13 502.24L676.33 502.45L675.52 502.65L674.7 502.84L673.86 503.02L673.01 503.19L672.14 503.35L671.26 503.51L670.37 503.66L669.47 503.81L668.55 503.95L667.63 504.09L666.7 504.23L665.75 504.36L664.8 504.49L605.7 509.33L605.11 510.35L598.98 519.98L592.48 529.42L585.6 538.66L578.36 547.69L574.97 551.6L590.54 606.7L590.74 607.61L590.93 608.51L591.12 609.4L591.31 610.28L591.48 611.15L591.65 612.02L591.8 612.88L591.95 613.73L592.09 614.57L592.21 615.4L592.32 616.22L592.42 617.03L592.51 617.83L592.57 618.62L592.63 619.4L592.66 620.16L592.68 620.92L592.68 621.67L592.67 622.4L592.63 623.12L592.57 623.83L592.49 624.53L592.38 625.21L592.26 625.88L592.11 626.53L591.93 627.18L591.73 627.81L591.5 628.42L591.24 629.02L590.96 629.6L590.65 630.17L590.31 630.73L589.93 631.27L589.53 631.79L589.09 632.3L588.62 632.79L588.12 633.26L587.58 633.71L587 634.15L586.39 634.57L495.09 694.35L494.45 694.74L493.82 695.09L493.18 695.41L492.54 695.68L491.9 695.92L491.25 696.13L490.6 696.29L489.95 696.43L489.29 696.52L488.64 696.59L487.98 696.62L487.32 696.62L486.66 696.59L486 696.53L485.33 696.43L484.67 696.31L484 696.16L483.33 695.98L482.67 695.77L482 695.54L481.33 695.28L480.66 695L479.99 694.69L479.33 694.36L478.66 694.01L477.99 693.63L477.32 693.23L476.66 692.81L475.99 692.37L475.33 691.91L474.67 691.43L474.01 690.94L473.35 690.42L472.69 689.89L472.04 689.34L471.39 688.78L470.74 688.21L470.09 687.62L469.44 687.01L468.8 686.4L426.91 648.52L422.04 650.02L411.02 652.95L399.97 655.44L388.91 657.5L377.83 659.13L376.47 659.28L347.27 712.12L346.83 712.96L346.38 713.8L345.93 714.62L345.47 715.44L345.01 716.24L344.54 717.02L344.06 717.8L343.58 718.55L343.09 719.29L342.59 720.02L342.09 720.73L341.58 721.42L341.07 722.09L340.55 722.74L340.02 723.37L339.49 723.98L338.94 724.57L338.4 725.14L337.84 725.69L337.28 726.21L336.72 726.7L336.14 727.17L335.56 727.62L334.97 728.04L334.38 728.43L333.78 728.79L333.17 729.12L332.56 729.43L331.93 729.7L331.31 729.94L330.67 730.15L330.03 730.33L329.38 730.48L328.72 730.59L328.05 730.66L327.38 730.71L326.7 730.71L326.02 730.68L325.32 730.61L324.62 730.5L222.5 711.97L221.81 711.83L221.15 711.65L220.52 711.45L219.91 711.21L219.34 710.94L218.79 710.65L218.27 710.32L217.77 709.97L217.3 709.59L216.85 709.18L216.43 708.75L216.02 708.29L215.64 707.8L215.29 707.29L214.95 706.76L214.63 706.2L214.33 705.63L214.05 705.02L213.79 704.4L213.54 703.76L213.31 703.09L213.1 702.41L212.9 701.71L212.71 700.99L212.54 700.25L212.38 699.49L212.23 698.72L212.1 697.93L211.97 697.12L211.86 696.3L211.75 695.47L211.65 694.62L211.56 693.76L211.48 692.89L211.41 692L211.34 691.1L211.27 690.2L211.21 689.28L211.15 688.35L211.1 687.42L210.98 629.16L210.09 628.7L200.84 623.39L191.81 617.68L183.01 611.59L174.45 605.11L170.77 602.06L113.74 621.99L112.81 622.26L111.89 622.53L110.97 622.79L110.06 623.04L109.16 623.28L108.27 623.52L107.39 623.74L106.52 623.96L105.66 624.16L104.81 624.35L103.97 624.53L103.14 624.69L102.32 624.84L101.52 624.97L100.73 625.09L99.95 625.19L99.18 625.27L98.42 625.33L97.68 625.37L96.96 625.39L96.24 625.39L95.55 625.36L94.86 625.32L94.2 625.24L93.54 625.15L92.91 625.02L92.29 624.87L91.68 624.7L91.1 624.49L90.53 624.26L89.98 623.99L89.44 623.69L88.93 623.37L88.43 623.01L87.96 622.61L87.5 622.18L87.06 621.72L86.64 621.22L86.24 620.69L85.87 620.11L32.74 534.14L32.39 533.54L32.09 532.94L31.82 532.33L31.59 531.72L31.4 531.09L31.25 530.47L31.13 529.84L31.05 529.2L31 528.56L30.99 527.91L31.01 527.26L31.07 526.6L31.15 525.94L31.27 525.28L31.42 524.61L31.59 523.94L31.8 523.26L32.03 522.58L32.3 521.9L32.59 521.22L32.9 520.54L33.24 519.85L33.61 519.16L34 518.47L34.41 517.78L34.85 517.08L35.3 516.39L35.78 515.69L36.28 514.99L36.8 514.3L37.34 513.6L37.89 512.9L38.47 512.21L39.06 511.51L39.66 510.82L40.28 510.12L40.92 509.43L41.57 508.74L42.23 508.05L42.91 507.36L84.62 462.65L83.5 457.92L81.42 447.2L79.79 436.42L78.6 425.58L77.85 414.7L77.82 413.57L26.5 388.7L25.7 388.25L24.91 387.8L24.13 387.36L23.36 386.91L22.6 386.47L21.85 386.02L21.12 385.57L20.4 385.12L19.69 384.67L19 384.22L18.33 383.77L17.68 383.31L17.04 382.85L16.42 382.38L15.82 381.91L15.25 381.44L14.69 380.96L14.16 380.48L13.65 379.99L13.16 379.49L12.7 378.99L12.26 378.48L11.85 377.96L11.47 377.44L11.11 376.91L10.79 376.37L10.49 375.82L10.23 375.26L9.99 374.69L9.79 374.11L9.62 373.52L9.49 372.92L9.39 372.3L9.32 371.68L9.29 371.04L9.3 370.39L9.35 369.73L9.44 369.06L9.56 368.37L9.73 367.66L36.72 264.61L36.92 263.91L37.16 263.23L37.42 262.58L37.71 261.95L38.03 261.34L38.38 260.75L38.76 260.19L39.16 259.64L39.59 259.12L40.04 258.61L40.52 258.13L41.03 257.67L41.56 257.22L42.11 256.8L42.68 256.39L43.28 256L43.9 255.63L44.53 255.28L45.19 254.94L45.87 254.63L46.56 254.32L47.28 254.04L48.01 253.77L48.76 253.51L49.52 253.28L50.3 253.05L51.09 252.84L51.9 252.65L52.73 252.47L53.56 252.3L54.41 252.14L55.27 252L56.14 251.87L57.02 251.76L57.91 251.65L58.81 251.56L59.72 251.47L60.64 251.4L61.57 251.34L62.5 251.29L121.6 246.45L122.19 245.43L128.32 235.8L134.82 226.36L141.7 217.12L148.94 208.09L152.33 204.18L136.76 149.08L136.49 148.22L136.23 147.36L135.99 146.51L135.76 145.65L135.54 144.81L135.34 143.97L135.15 143.13L134.97 142.3L134.82 141.47L134.68 140.65L134.55 139.84L134.45 139.03L134.36 138.23L134.29 137.44L134.24 136.66L134.21 135.89L134.21 135.13L134.22 134.37L134.25 133.63L134.31 132.9L134.39 132.18L134.49 131.47L134.61 130.77L134.76 130.08L134.94 129.41L135.14 128.75L135.36 128.11L135.62 127.48L135.89 126.86L136.2 126.26L136.54 125.68L136.9 125.11L137.29 124.56L137.72 124.03L138.17 123.51L138.65 123.01L139.17 122.53L139.72 122.07L140.3 121.63L140.91 121.2L232.21 61.43L232.84 61.04L233.47 60.69ZM275.51 260.08L270.46 264.11L265.59 268.29L260.91 272.63L256.43 277.11L252.14 281.72L248.04 286.46L244.14 291.32L240.43 296.3L236.93 301.38L233.63 306.57L230.53 311.85L227.64 317.21L224.96 322.66L222.48 328.18L220.22 333.77L218.17 339.42L216.33 345.12L214.71 350.87L213.31 356.66L212.13 362.48L211.17 368.33L210.43 374.19L209.92 380.07L209.64 385.95L209.58 391.84L209.76 397.71L210.16 403.57L210.8 409.4L211.68 415.21L212.8 420.98L214.15 426.71L215.75 432.39L217.59 438.02L219.67 443.58L222.01 449.07L224.59 454.48L227.42 459.81L230.5 465.06L233.8 470.15L237.29 475.05L240.96 479.75L244.81 484.25L248.82 488.55L252.99 492.65L257.31 496.55L261.78 500.24L266.38 503.73L271.12 507.01L275.98 510.08L280.97 512.94L286.06 515.6L291.26 518.04L296.56 520.27L301.95 522.28L307.42 524.08L312.97 525.67L318.59 527.03L324.28 528.18L330.03 529.11L335.82 529.81L341.66 530.29L347.54 530.55L353.45 530.59L359.38 530.4L365.33 529.98L371.29 529.33L377.25 528.45L383.21 527.34L389.16 526L395.09 524.42L401 522.61L406.88 520.57L412.72 518.28L418.51 515.76L424.26 513L429.95 510L435.57 506.75L441.13 503.26L446.55 499.57L451.79 495.7L456.84 491.67L461.71 487.48L466.39 483.15L470.87 478.67L475.16 474.06L479.26 469.32L483.16 464.46L486.87 459.48L490.37 454.4L493.67 449.21L496.77 443.93L499.66 438.56L502.34 433.12L504.82 427.59L507.08 422.01L509.13 416.36L510.97 410.66L512.59 404.91L513.99 399.12L515.17 393.3L516.13 387.45L516.87 381.59L517.38 375.71L517.66 369.82L517.72 363.94L517.54 358.07L517.14 352.21L516.49 346.37L515.62 340.57L514.5 334.8L513.15 329.07L511.55 323.39L509.71 317.76L507.63 312.2L505.29 306.71L502.71 301.29L499.88 295.96L496.8 290.72L493.5 285.63L490.01 280.73L486.33 276.03L482.49 271.53L478.48 267.23L474.31 263.13L469.99 259.23L465.52 255.54L460.92 252.05L456.18 248.77L451.32 245.7L446.33 242.84L441.24 240.18L436.04 237.74L430.74 235.51L425.35 233.5L419.88 231.7L414.33 230.11L408.71 228.75L403.02 227.6L397.27 226.67L391.48 225.97L385.64 225.48L379.76 225.23L373.85 225.19L367.92 225.38L361.97 225.8L356.01 226.45L350.05 227.33L344.09 228.44L338.14 229.78L332.21 231.35L326.3 233.16L320.42 235.21L314.58 237.49L308.79 240.02L303.04 242.78L297.35 245.78L291.73 249.03L286.17 252.51L280.75 256.21L275.51 260.08Z" id="diZS3Z1Hj"></path></defs><g><g><g><use xlink:href="#diZS3Z1Hj" opacity="1" fill="#2b232c" fill-opacity="1"></use></g></g></g></svg>