<svg xmlns="http://www.w3.org/2000/svg" viewBox="0 0 606.76 717.37"><defs><style>.cls-1{fill:#265f23;}</style></defs><g id="Layer_2" data-name="Layer 2"><g id="Layer_1-2" data-name="Layer 1"><path class="cls-1" d="M493.72,630q2.08-.82.28-2.57l-.8-1.7a118.46,118.46,0,0,1-4.86-11.29c-2.66-7.58-3.41-15.69-6.16-23.23-2.36-6.49-6-12.29-8-18.94-2-6.86-3.91-13.76-5.84-20.64-.49-1.73-.73-4.12-1.6-5.68-.74-1.31-2.55-2.06-3.24-3.54-.78-1.67-.42-1.75-.05-3.45,1.44-.32,1.64-1.15.62-2.49l-.78-2.77c-2.44-8.67-5.09-17.27-7.24-26s-4.62-17.13-7.26-25.59c-2.55-8.18-7-15.23-10-23.19-2.89,1.92-7.28,1.25-7.66-2.58-.18-1.79,1-4.14,2-5.54,1.74-2.48,1.89-2.14.68-5.2-3.07-7.75-4.43-16-7.6-23.68l2.12,2.08c-1.19-3.23-3.66-8.13,1.7-8.91,4.93-.72,8.47,4.6,8.76,8.89.15,2.32-1.86,5-1.69,6.85.14,1.63,2.09,2.67,3.79,3.92a80.71,80.71,0,0,0,13,7.86c20.49,9.69,45.84,9.29,67.94,6.72,23.17-2.69,44.52-13.9,61.29-30,16.12-15.47,29.65-41.13,21-63.69-9.06-23.6-36.78-31.83-59.6-33.93-6.09-.55-23.9-.86-19.29-11.12,4.5-10,20.13-13.14,28.91-18,21.17-11.79,38.5-33.46,42.37-57.72,1.72-10.75.89-22.17-5-31.6-6.51-10.45-17.62-15.95-29.56-17.67-12.16-1.76-24.25.25-35.86,3.91-13.48,4.23-26.83,9-39.84,14.57C460.73,214.85,435,228,413.12,245c11.65-17.36,19.7-37.13,28.17-56.17a205.81,205.81,0,0,0,17.18-62.73c2.07-20.11-.71-41.14-9-59.68a95,95,0,0,0-7.89-14.28c-.52-.76-1.65-2.87-2.31-3.24s-2,.06-2.76-.3c-2.31-1-.75.29-1.4-1.71s.24-2.27-1-4.22c-2.73-4.37-8.21-8.1-12.1-11.39-4.42-3.75-8.94-7.39-13.47-11C392.82,7.64,373.93-2,353.15.36a47.62,47.62,0,0,0-27.72,12.73c-7.68,7.29-13.67,17-23,22.34-19,11-33.28-15.71-52.63-12.53-20.58,3.37-31.08,25.91-32,44.57a92.35,92.35,0,0,0,4,33.17c3.63,11.21,9.87,21.18,16.24,31a141.88,141.88,0,0,0,24,28.78c7.2,6.45,15,12.15,22.16,18.69.39-4,5.68-4.3,5.28,0a11.51,11.51,0,0,1-1.08,2.2c-1.23.91-1.05,1.74.52,2.48.93,1.71,3,3.35,4.27,4.88A178.7,178.7,0,0,1,309.46,213c8.82,15.33,12.59,32.42,15.6,49.67-12.58-22.53-28-43.41-43-64.42-3.62-5.1-7.41-10.12-11.48-14.86-2.26-2.63-4.64-5.13-7.07-7.59s-2.26-3.23-4.7-1.47c-2.81,2-6.27,7.14-9.58,1.91-1.42-2.25.05-7.55,2-9.14,1.39.34,2.83.65,4.24,1-18.27-16.57-39.71-28.44-62.4-37.79-19.86-8.18-39.93-14.66-61.65-13.32-10.4.64-21.52,1.59-31.24,5.61-11.26,4.67-18.17,14-20.92,25.74-5.09,21.71,2,46.3-8.94,66.68-12.25,22.89-41.9,23.42-59.47,40.18-2.9,2.76-8.19,8.12-8.55,12.38-.19,2.2-.28,1.56,1.86,2.61,1,.5,2.91,1.92,4,1.94,1.67.05,6.39-2,7.7-3.12s2.43-3.49,3.78-4.83A40.5,40.5,0,0,1,26.24,259a113.84,113.84,0,0,1,14.87-7.82c10.22-4.73,20.5-9.55,28.76-17.38,8.69-8.25,13.67-19,15.74-30.72s1.37-23.88,1.52-35.83c.14-10.65.53-23.23,8.58-31.26s21.7-9.12,32.57-10a99.31,99.31,0,0,1,36.88,3.76c23.46,7,47.3,18.27,66.85,33.07,18.67,14.13,32.75,30.93,45.77,50.29,13.28,19.76,27.09,39.17,40.49,58.86,4.12,6,9.27,15.92,15.92,19.68,7.54,4.26-.28-10.82-.45-12.4s.78-4,1-5.67c.3-2.47.48-5,.66-7.45a122.78,122.78,0,0,0-.17-16.5,115.42,115.42,0,0,0-6.15-31.39,130.63,130.63,0,0,0-35.87-52.77c-8.76-7.72-18.66-14.16-26.8-22.57-7.8-8.07-14.22-17.33-20.39-26.68-11.3-17.12-18.54-39.46-12.75-60,2.44-8.64,9.67-19.69,19.49-20.85,9.5-1.11,18.8,8.79,27.21,12.12,22.49,8.89,36.31-8.31,49.8-23.36,14.65-16.35,36.35-17.64,55.55-8.44a85.4,85.4,0,0,1,13.62,8.24c1.07.79,2.54,2.51,3.79,2.94,1.56.53,2,0,3.74-.57a27.35,27.35,0,0,1,7.33-1.42c-1.45,1.13-4.62,4-5,5.81s4.05,4.37,5.68,5.73a137.55,137.55,0,0,1,12.13,11.14A79,79,0,0,1,443.3,75.74c7,20.12,6.83,41.29,2.68,62-4.42,22-13.52,41.47-22.93,61.64-4.5,9.62-8.63,19.41-13.5,28.84s-10.48,18.25-15.76,27.33c-3.07,5.27-4.94,11.94-9.08,16.17a156.39,156.39,0,0,0-19.21,23.06c-1.6,2.44-5.6,7.39-5,10.54.67,3.77,4.79.32,6.54-1,7.39-5.78,13.88-13,20.63-19.45,15.43-14.84,30.87-30,48.92-41.62a406,406,0,0,1,59.77-31.91c13.74-5.87,28.72-12.4,43.37-15.51,10.54-2.23,22.29-2.41,32.32,2,10.9,4.8,16.33,15.51,16.41,27.08,1.29-2.13,7.87,1.61,7.42,3.95-.8,4.17-6.58-.66-7.44-2.5-.32,13.84-6.09,26.67-14.57,37.4-10.63,13.45-24.05,20.46-39.39,27.18-7.09,3.1-14,7-18.07,13.85a19.7,19.7,0,0,0-2.86,9.15c-.08,2.28.35,7.28,2.45,8.65,4.33,2.81,7.39-3.65,11.5-3,1.58.26,4.52,2.45,5.77,3.28,3.45,2.31,4,5.58,2.52,9.49,20.43,3.23,51.19,6.12,57,30.93,5.25,22.38-14.65,43.83-31.48,55.27-8.82,6-18.63,11-29.07,13.48-11.7,2.73-23.91,2.88-35.88,2.65-10-.18-20.27-.91-29.73-4.32-10.88-3.91-20.08-11.44-28.49-19.17a155.23,155.23,0,0,1-22.69-26.64c-6.78-9.78-13.83-19.63-23.21-27.12A52,52,0,0,0,380,349.87c-1.65-.69-11.62-4.57-12.92-1.72-.68,1.5,8.13,6.62,9.23,7.47,2.22,1.72,4.5,3.47,5.64,6s1.62,5.1,2.58,7.54c3.9,10,8.78,19.77,11.86,30a76,76,0,0,0,4.25,12c2.62,5.31,6.9,9.46,9.91,14.51,2.42,4.07,3.63,8.68,4.94,13.19,1.66,5.74,4.17,11,6.49,16.51,4.54,10.75,10.86,20.77,14.75,31.73,9.16,25.81,17.66,52,26,78.07,1.85,5.8,3.37,11.79,5.87,17.35,2.8,6.23,5.66,11.92,7.06,18.67,1.33,6.35,2.34,12.7,4.46,18.85,2,5.69,4.46,11.19,6.63,16.82a18.38,18.38,0,0,0,2.5-2.49C490.44,632.94,492.79,631.58,493.72,630Z"/><path class="cls-1" d="M501,643.05l-2.73-6C496.06,639.65,498.38,641.43,501,643.05Z"/><path class="cls-1" d="M503.54,655.81a16.29,16.29,0,0,0-1.66,3.57C502.34,658.2,502.93,657,503.54,655.81Z"/><path class="cls-1" d="M512.52,673.57c-2.91-6.74-4.73-13.77-7.26-20.65a25,25,0,0,0-1.72,2.89c-.61,1.21-1.2,2.39-1.66,3.57a11.47,11.47,0,0,0-.66,5.23,9.48,9.48,0,0,1,.66-5.23,16.29,16.29,0,0,1,1.66-3.57c.27-.55.54-1.08.79-1.67,1-2.29.69-2.63-1.41-4.38s-4.25-3.1-6.35-4.63c-1.7-1.24-3.72-3.35-5.81-1.4-1.28,1.2-.86.59-.46,2.39a24.85,24.85,0,0,0,1.31,3.34,142.59,142.59,0,0,1,4.88,14.86c2.28,8.45,6.3,16,9.11,24.21.72,2.08,1.74,9.72,3.53,10.64,2.65,1.34,7.16-3.43,9.16-1.5.06-1.39,0-2.8-.1-4.2C517.93,686.46,515.26,679.91,512.52,673.57Z"/><path class="cls-1" d="M488.34,702.55c1.92,1.72,3.62,3.66,6,4.66a106.67,106.67,0,0,0-5.67-24.93c-3-8.73-4.27-17.69-6.58-26.58-5.52,5.07-10.23-.77-13.19-5.1,3.23,12,4.32,24.43,8.48,36.23,2,5.56,3.72,11.16,5.52,16.77,1.41,4.38,2.88,10.66,6.62,13.77C486.22,712.58,484.6,707.7,488.34,702.55Z"/><path class="cls-1" d="M476.6,638c-2.42-7.51-5.37-14.76-8.18-22.13s-4.35-15.26-6.74-22.86c-3.14-10-8.85-19-12.16-29-10.31-31.28-19.7-62.82-29.85-94.14-2.63-8.09-6.88-15.32-9.94-23.22-3-7.69-6.23-15.34-9-23.11-3.16,2.59-14.82.35-16.62-3.3-3.45-7,8.35-10.29,12.89-9.09-2.45-7.59-6.63-13.45-11.21-19.87-4.16-5.83-6.19-12.27-9-18.78-6.12-14.23-18-30.1-31.59-37.87,4.81-3.22,2.5-4.67-2.14-4.16-2.83.31-2.87,1-4.71-1-1.52-1.68-2.75-3.66-4.24-5.38-1.23,2.3-2.66,2.48-4.46.28s-.79-3,1.11-4.31a39.9,39.9,0,0,0-4.3-5.63c-1.95-1.89-4.42-2.89-6.54-4.52-4.11-3.16-7.11-7.9-11-11.41s-8.24-6-12.09-9.33c-4.34-3.79-8.68-7.71-13.31-11.14-19.13-14.16-40.71-22.73-63.16-30-5.12-1.65-10.26-1.85-15.61-1.82-2.18,0-10.94.35-7.05,4,2.66,2.5,10.35,2,13.76,2.22,6.21.4,12.44,2.65,18.42,4.32,20.12,5.61,38.64,14.66,54,29.14,4.31,4.05,8.43,8.6,13.23,12.08a61.12,61.12,0,0,1,12.43,11.66,43,43,0,0,0,4.47,5.6c2.14,2,4.92,3.14,7,5.2,4.19,4.18,7.27,8.82,11.95,12.64-1.79.64-3.54,1.7-5.37,2.19-2.33.62-3.11,0-5.33-.91A41.92,41.92,0,0,0,306,331.9c-5.9.14-11.48,2-17.26,2.47-4.3.34-9.41-3.79-13.64-5.51-22.82-9.25-47.54-9.5-71.75-9.71-11.22-.09-22.46-.46-33.66.45-12.72,1-25.15,4-37.78,5.69-10.59,1.43-21.2,1-31.81,0-12.7-1.27-25.55-2.78-37.9-6.09a99,99,0,0,1-34.1-16.25c-10.23-7.78-20-21.08-12.17-34-2,.83-4.79,2.57-6.93,2.81s-5.06-1.77-7.17-2.8c-8.27,24.61,13.25,44,32.75,54.61,20.6,11.18,44.65,15.3,67.76,17.46-1.27-.79-2.53-1.59-3.83-2.32,4.39-3,10.3-1.5,14.76-4.4,2.12-1.37,2.94-3.31,5.26-1.06a7.23,7.23,0,0,1,1,8.66c13.1-.18,25.81-2.68,38.72-4.61,12.56-1.88,25.14-1.78,37.8-1.91,26.44-.28,52.46-1.83,78.29,3.29q-4.77,1.66-9.44,3.6c2.71,3,6.15,5.89,3.5,9.92s-8.26,7.6-11.82,10.88c18.68-10.29,39.47-21.18,61.11-22.85a108.5,108.5,0,0,1-10.83,9.11,49.37,49.37,0,0,0-11.69,12.09c-6.45,9.51-13.69,18.4-18.89,28.72-6.05,12-9.17,24.58-13.72,37.05-1.72,4.72-2.57,9.78-3.86,14.62-1.6,6-4.06,12-4.92,18.13-.63,4.42-2,10.6-1,15,1.24,5.54,4.17.07,5-2.62,1.51-4.79,1.51-9.68,2.61-14.53,1.25-5.51,2.78-10.95,4-16.49,4.58-21.53,10.58-42.43,24.27-60.22,3.79-4.92,7.91-9.55,11.5-14.62A44.79,44.79,0,0,1,313,354.35c4.54-2.75,7.83-7.29,12.41-9.71s9.55-4.48,14.23-6.77c2.27,4.74,5.47,8.95,7.49,13.81,2.14,5.17,4.5,10.26,6.84,15.34l8.48-7.8a68.8,68.8,0,0,0,7.58,6.59c4.1,3.25,6,8.2,8.33,12.71.6,1.17,1.21,2.33,1.82,3.49q2.07,1.94-.5,3.06c-.51.87-4.52,5-5.49,5.13-1.47.2-4.72-2.36-6.15-2.9a23.46,23.46,0,0,0-5.21-1.21c5.39,11.49,11.42,22.67,16.73,34.2a350,350,0,0,1,13.8,36.25c3.14-4.73,8.78,3.36,8.89,6.41.23,6.4-4.87,1.86-6.93-.43,7.06,21.89,13,45.23,3.06,67.3-10,22.28-32.94,34.44-56.61,35.82-20.25,1.17-41.72-2.92-59.34-13.14-9.73-5.65-18.05-12.93-27.18-19.41-8.36-5.94-18.75-11.21-28.77-6-4.83,2.53-8.55,6.69-12.53,10.32a109.69,109.69,0,0,1-16,12.19c-9.45,5.92-20,10.59-31,12.59-12.83,2.33-26.3.3-37.19-7.1C110.26,542,107,517.43,106.09,495.79c-.92-22.48,2.47-48.23,15.9-67C136.18,409,161.85,410.48,182.38,402c10.58-4.38,20.23-10.83,30.4-16,10.92-5.59,22.07-10.74,32.78-16.74-5.54-.43-8.43-10.58-6.3-14.67-10.59,5.54-21.54,10.36-32.13,15.89-11.19,5.84-21.82,13.49-33.67,17.94-21.4,8-44.89,8.56-60.47,27.74,2.49-1,4.3,1.08,3.1,3.34s-5.39,2.87-5.37-.36c-11,15.28-16.16,34.76-17.87,53.31s-.78,39.19,4.67,57.11c8.44,27.76,32.09,46.93,62.09,45.22,19.13-1.09,37.93-10.55,52.74-22.27,5.49-4.35,10.11-9.57,15.42-14.09,6.88-5.85,13.34-3.37,20.32,1.12,11.39,7.34,21.32,16.23,33.42,22.63,17.22,9.11,37.25,12.7,56.61,12.65,21.37-.07,42.81-7.64,57.64-23.4S416,514.05,414,492.81c9.17,25.95,19.19,51.6,28.36,77.55a161,161,0,0,0,7.52,16.81c2.86,5.87,4.34,12.1,5.78,18.44,2.94,12.88,8,25.11,11.39,37.87.83-1.83,1.85-5.4,3.43-6C471.78,636.91,475.28,637.55,476.6,638Z"/><path class="cls-1" d="M364.15,289.3c2.28-3.94,3.05-8.38,4.82-12.52s4.62-7.9,6.43-12.12c3.86-9,5.52-18,7.91-27.37A149,149,0,0,0,388,190.85a153.51,153.51,0,0,0-4.46-27.22c-1.11-4.57-1.48-9.27-2.7-13.83-1.42-5.31-3.45-10.53-5.38-15.69-.54.24-3.89,1.26-4.36,2.06-.77,1.3,1.6,5.5,2.31,7.14,3.26,7.07,4,14.55,6,22,1.21,4.56,2.59,8.83,3.07,13.54a165.4,165.4,0,0,1,.63,20.76c-.32,12.5-2.86,24.62-6.31,36.6-1.84,6.36-2.95,12.69-5.44,18.87-1,2.52-2.94,5.47-3.53,8.09-.79,3.54-.69,5.52-3.4,8.41a10.59,10.59,0,0,1-.52-1.91,54.35,54.35,0,0,0-4.37,9.94c-1.6,4.5-4.14,7.91-6.81,11.81-4.66,6.83-9.66,15.51-11.68,23.6-2.14,8.61,6.78-2.64,8.17-4.49C354.32,303.73,359.9,296.63,364.15,289.3Z"/><path class="cls-1" d="M371.33,123.71c-.95-2.27-1.73-4.62-2.68-6.89a61.77,61.77,0,0,0-7.56-12.54c-1.18-1.61-10.67-15.37-12-10.26-.68,2.5,3.28,7.32,4.44,9.27s2.44,4,3.78,5.95c.92,1.33,2.35,4.79,3.59,3.62a6.79,6.79,0,0,1,0,1.91c2.17,3.63,3.53,7.63,5.29,11.46.74,1.6,1.62,4.12,3.24,5.08s.46.94,2.19.2a6.4,6.4,0,0,0,2.11-2.06C373.93,128.22,371.81,124.86,371.33,123.71Z"/><path class="cls-1" d="M488.62,315.56a148.61,148.61,0,0,0-14.3-4.73c-3.12-.77-6.09.3-9.21,0-2.2-.21-4.23-1.23-6.38-1.7-5.17-1.12-10.32-.82-15.52-.64-6.33.22-12.71-1-19-1.05-7,0-14,.58-21,1.2-5,.42-9.62,2.18-14.7,2.51s-10.3,1.82-15.36,2.94c-4.44,1-9.32,1.37-13.54,3.11-2.29,1-12.28,4.51-12.12,7.8.19,4,8.79.29,10.44-.38,5.09-2.07,9.93-3.23,15.18-4.78,5-1.47,10.2-3.44,15.4-4.08,4.89-.6,9.57-2.16,14.41-2.66,11.29-1.15,22.72,0,33.92,1.46,4.76.62,9.46.27,14.19.91,5,.69,10.06,3,15,3.27,2.32.1,4.5-.48,6.81,0s4.49,1.68,6.86,2.16c2.95.58,13,2.69,15.26,0C497.22,318,490.73,316.32,488.62,315.56Z"/><path class="cls-1" d="M130.15,515.45c-1.58-2.83-1.63-4-2.18-7.29s-2.2-5.64-3-8.59c-1.91-7.57-1.71-16.18-3.06-23.87-.57-3.25.34-7.86.81-11.24.43-3.22,2.23-6.1,2-9.35-.16-2.18.74-8-3.24-6.7-2.76.92-2.44,5.16-2.71,7.34-.74,6.08-1.74,12-1.55,18.22,0,1.89,1,3.59,1.15,5.46.31,3,0,6.08.1,9.06.08,3.4,0,6.78.07,10.18s1.35,6.25,2,9.61c.48,2.48-.09,5.36.57,7.71.41,1.43,1.72,2.28,2.24,3.59s.3,2.61.56,4c.55,2.95,6.07,12.62,8.25,6.81C133.21,527.81,131.51,517.88,130.15,515.45Z"/><path class="cls-1" d="M140,500c0-1.56-1.24-2.53-1.29-4.05,0-1.24.86-2.81,1-4.11.24-2-.35-3.25-.55-5.09-.37-3.24.5-6.49.74-9.75a78.82,78.82,0,0,0,.08-10.86c-.2-3,.78-6.6,1.42-9.67.7-3.34,2.23-5.44,2.05-9-.22-4.25-4-6.11-5.65-1.25-.52,1.46-.5,3.56-.83,5.13a31.54,31.54,0,0,0-.85,4.39,72.16,72.16,0,0,0-.4,10.33c.39,5.08-1.06,10.39-2.39,15.33-1,3.6-.33,6.63-.8,10.18-.4,3.05-1.3,4.75-.93,7.74.3,2.45-2.28,14,3.82,12.07,2.58-.83,2.65-5.92,3.32-8C139.11,502.3,140,501.08,140,500Z"/><path class="cls-1" d="M160.1,502.13c-.18-1.73-.9-2.3-.71-4.1s1.06-3,1-5c0-1.46-.61-2.76-.67-4.18.49-3.64,1.15-7.2,1.35-10.88.11-1.93.35-4,.3-5.9s-.7-3.42-.41-5.23c.4-2.62.92-5.62,1.59-8.23.83-3.2,2.31-5.72,1.48-9.2-.95-4-4.7-3.47-5.7.26-.41,1.55-.33,3.49-.6,5.09a32.76,32.76,0,0,0-.71,4.36c-.07,1.63.3,3.3.14,4.91-.14,1.39-.84,2.46-.78,3.9.11,2.85.64,3.77.12,6.75-.67,3.88-1.62,7.57-2.63,11.36-.77,2.89-.23,5.47-.75,8.37s-1.54,4.58-1.34,7.53c.14,2.17-.73,3.57-.95,5.73-.32,3.29,1.92,9.1,5.39,5,1.55-1.85,1.7-4.57,2.55-6.74C159.3,504.58,160.25,503.67,160.1,502.13Z"/><path class="cls-1" d="M179,485.65c-1.87,1.82-1.72,3.47-2.86,5.53a4.66,4.66,0,0,1-1.77,1.49.92.92,0,0,0-.1,1.46c-.12.2-1.51,2.2-1.57,2.4-.71,1.62-.21,2.31,1.28,2.83,2.19.77,4.55-1.61,5.81-3s2.64-2.87,2.25-4.85C181.59,489.34,178.71,488.11,179,485.65Z"/><path class="cls-1" d="M185.68,480.22a17.7,17.7,0,0,1,1.31-3.35c.42-.72,1.9-2,2-2.71.54-2.2-2.23-5.44-4.56-4.31-1.55.74-2,3.55-2.39,5.11-1,3.59.18,5.53-2,9,1.4-.9,4-.54,5.17-1.47C186.71,481.35,185.2,481.82,185.68,480.22Z"/><path class="cls-1" d="M207.66,484.74c-.11-.25-.21-.5-.31-.74a2,2,0,0,1,1.31-1.42c.42-.83.8-.88,1.08-1.94.5-1.83.26-2.85,1.23-4.68a19.2,19.2,0,0,0,2.38-6c.07-.52,0-1.53.1-1.94a18.91,18.91,0,0,1,1.21-2.54c.34-.79.37-1.58.77-2.35.49-1,2-1.93,2.29-2.87.69-2-.28-4.61-2.46-5.07-2.86-.6-2.68,1.33-3.46,3.27a26.72,26.72,0,0,0-1.6,5.55c-.18.87-.67,2-.86,2.87-.08.37.13.76,0,1.16a13.66,13.66,0,0,1-1.63,3,31.41,31.41,0,0,1-2.67,3.58c-1.24,1.57-1.09,2.08-1.84,3.62-.93,1.92-2.53,2.88-3.62,4.59-.18.29.17,1.54-.15,2.17s-1.33.7-1.59,1.48c-.65,1.89.74,4.18,2.42,4.36,2.22.23,3.88-2.16,5.38-3.37C207.41,486,207,486.16,207.66,484.74Z"/><path class="cls-1" d="M230.73,487.12c0-.12.44-.45.53-.63.65-1.31.34-2.25.73-3.66a24.44,24.44,0,0,0,1.22-3.95c.25-1.92-.45-1.24.35-3.34.27-.7,1.7-2.76,1.73-3.05.19-1.63-1.75-2.82-3-3.12-2.92-.71-2.3.24-2.9,1.86a12.09,12.09,0,0,0-.71,3,19.67,19.67,0,0,0-.42,2.26c0,.35.86.76.75,1.19a9.68,9.68,0,0,1-1.6,2.92c-.38.53-1.13,1.11-1.44,1.58-.51.77-.91,1.9-1.22,2.39-.67,1.06-1.85,1.61-2.54,2.51-.56.75.34,1.24.14,1.5-.35.46-1.67.93-1.78,1.42-1.07,4.93,5.68,1.76,7.65.45a4.54,4.54,0,0,0,1.82-1.94C229.37,489.43,231,485.69,230.73,487.12Z"/><path class="cls-1" d="M281.93,496.83c.44-1.2-.53-1.9-.28-3,.53-2.32,2.49-3.81,2.72-6.47.13-1.49-.18-2.59.08-4.11s1.1-3.07,1.44-4.64c.47-3,1.27-6.35,1.08-9.36-.1-1.46-.58-2.57-.49-4,.07-1.29.64-3,.8-4.37.25-2.16,3.57-16.11-3.12-13.24-2.47,1.06-1.69,6.12-2,8.14-.35,2.68.21,5.49.14,8.13-.14,4.94,0,8.65-2,13.74a60.08,60.08,0,0,0-2.8,8.12c-.77,3.1-2.72,5.46-3.47,8.29-.49,1.89-6.29,11.12.43,10.26,2.42-.31,3.81-3.43,5.22-5.07C280.36,498.48,281.59,497.74,281.93,496.83Z"/><path class="cls-1" d="M309.08,527c.38-.93,1.22-1.87,1.4-2.86.29-1.63-.68-2.49-.79-4-.14-2.09,1.16-4.19,1.28-6.36.16-2.83-.72-5.3-.47-8.13a89.74,89.74,0,0,0,.55-10.5c-.05-1.85,0-3.8-.18-5.64s-1-3.33-1-5c-.09-2.93.28-6.32.43-9.32.14-2.72,1.27-5.33.5-8-.59-2-1.19-7.09-4.61-5.19-2.68,1.49-1,5.48-1,7.74s-.44,4.52-.13,6.94c.37,3,.07,6,.48,8.9.2,1.36.94,2.51,1,3.92a49.59,49.59,0,0,1-.86,9.4c-.42,2.95-1.53,5.86-1.78,8.84-.21,2.55.39,4.89-.23,7.49-.45,1.86-1.76,3.56-1.71,5.5,0,1.17.83,2.11.68,3.34s-1.1,2.13-1.34,3.26c-1.17,5.39,2.78,11.29,6.15,4.35C308.11,530.12,308.45,528.5,309.08,527Z"/><path class="cls-1" d="M330.64,515.32c.46-2.53,1.17-4.66.79-7.34-1-6.93,0-14-.81-21.14-.21-1.82-1.08-3.39-1.31-5.13s.42-3.34.37-5c-.08-3.16-.79-6.16-.09-9.33a11.89,11.89,0,0,0-1.1-7c-1.69-3.49-5-2.87-5.37,1.06-.21,2.18.54,4.65.53,6.9,0,2.88.74,5.44,1.19,8.24.23,1.45-.1,2.76,0,4.19.13,1.63,1,2.81,1.28,4.37a18.07,18.07,0,0,1,0,3.75c-.22,6.47-2,12.93-1.61,19.27a17.62,17.62,0,0,1-.82,6.28c-.31,1-1,1.79-1.14,2.83-.13,1.36.85,2.52.78,3.85-.1,2.26-4.18,12.82,2,11.72,2.61-.46,5.13-8.43,5.76-11C331.67,519.48,330.22,517.69,330.64,515.32Z"/><path class="cls-1" d="M358.92,520.26c-.06-1.61-1-2.71-.8-4.4.38-3.21,1.45-5.78.81-9.16-.71-3.72-.41-7.12-.48-10.92a102.66,102.66,0,0,0-1.44-12.1c-.26-1.73-1.28-3-1.69-4.62s.05-3.66-.19-5.42c-.41-2.95-1.36-5.77-1.46-8.8a15.85,15.85,0,0,0-1.91-7.92c-1.17-2.22-3.71-4.67-5.31-1.12-1.07,2.38.9,5.08,1.38,7.32.57,2.71.58,5.4,1.43,8.12,1,3.17,1.09,6.53,2.2,9.56a19.34,19.34,0,0,1,1.21,3.76c1.21,7.36-1.2,14.52-.83,21.75.14,2.5.4,4.87-.33,7.36a27.55,27.55,0,0,0-1.21,2.94c-.25,1.52.64,2.68.61,4.12-.05,3.12-4.43,9.85-.1,12.48,3.88,2.35,5.83-6.55,6.88-9.07C358.26,522.76,359,521.81,358.92,520.26Z"/><path class="cls-1" d="M381.17,527.15c.1-1.56,1.23-2.53,1.71-4,.9-2.72.2-4.87.19-7.54,0-3.88,1.36-7.73,1.36-11.69,0-7.55-2-14.53-1.71-22.1.1-3.23.45-5.85-1.41-8.81-2.89-4.59-6.36-.13-4.83,3.81,1.11,2.93.51,6.2,1.28,9.28a22.16,22.16,0,0,1,.95,5c.07,2.15.72,3.41,1.09,5.46,1.06,5.79-1.79,11.91-2.92,17.42-.6,2.88-.09,5.8-1.42,8.6-.38.82-1.29,1.53-1.6,2.36-.55,1.48.21,2.62-.13,4-.63,2.64-2.6,3.8-2.75,6.74-.23,4.71,2.79,5.51,5.66,2.28a37.58,37.58,0,0,0,4.52-6.61C382,529.66,381.07,528.9,381.17,527.15Zm-2-36.41,1-.67v1.21Z"/><path class="cls-1" d="M544.06,412.11c-3.16-.65-6.17-1.64-9.43-2.12-5.81-.82-11.09-.84-16.79-2.51-3.92-1.15-7.6-3-11.49-4.13-3-.85-6.08-.51-9-1.85-1.18-.54-2.12-1.68-3.4-2-1.74-.42-3,.51-4.82-.09-2.42-.81-3.25-1.95-6.11-1.81-4.95.26-5.51,3.35-1.71,5.89a46.7,46.7,0,0,0,7.14,3.9c1.78.7,2.55-.22,4.29-.16,1.56.05,2.56,1.18,4,1.66,3,1,6,.35,9,.89,3.33.59,6.47,1.78,9.83,2.34,2,.34,4.17.82,6.22,1s3.71-.31,5.59.17a77.54,77.54,0,0,1,9.7,2.78c2.94,1.19,5.19,2.48,8.57,2C551.54,417.23,547.82,412.88,544.06,412.11Z"/><path class="cls-1" d="M566.84,379.55c-1.92-1.19-4.6-1.34-6.73-2.12a40.39,40.39,0,0,0-8.69-1.77c-1.44-.21-2.64-.9-4-1.17-1.62-.32-2.94.2-4.54.12a19.51,19.51,0,0,1-3.62-.88c-6.51-1.69-12.74-4.27-19.36-4.71a20.78,20.78,0,0,1-6.22-1.58c-2.81-1.11-4.36-.08-7.1-.5s-9.9-3.48-11.27,1.17c-1.05,3.56,7.41,5.17,9.92,6.09,1.15.42,1.75,1,3,.93s2.17-1,3.47-.91c2.57.27,4.75,1.82,7.54,1.77,3-.05,5.27-.29,8.37.44s6.29,1.22,9.51,1.67c3.69.52,7.37.24,10.76,1.45,2.8,1,5.83,1.24,8.58,2.48s4.65,2.47,8,2.46C567.57,384.47,570.62,381.92,566.84,379.55Z"/><path class="cls-1" d="M560.17,359c-1.55-1-3.87-1.24-5.62-1.82a30.13,30.13,0,0,0-3.86-1.29c-1.48-.29-3-.21-4.5-.57-1.21-.29-2.1-1.19-3.4-1.36-2.73-.36-3.41.08-6.14-1a71.73,71.73,0,0,1-8.35-4c-3.15-1.73-6.46-1.8-9.5-3.53-.91-.52-2-1.75-2.8-2.15-1.4-.7-2.36,0-3.72-.37-2.14-.6-3.11-2.42-5.48-2.72-3.5-.45-6.36,1.27-3.85,4.65,1.29,1.72,3.46,2.54,5.1,3.83,1.14.89,1.64,1.83,3.09,2.19s2.34-.3,3.85.26c2.63,1,4.34,1.9,7.2,2.28,3.15.41,6,2.14,9.12,3a65.49,65.49,0,0,0,9.32,1.88c2.8.38,5.84,1.7,8.64,2.7,2.42.87,4.12,2.45,6.68,2.82,1.43.2,3.66.58,4.82-.54A2.72,2.72,0,0,0,560.17,359Z"/><path class="cls-1" d="M531.87,272.38a46.23,46.23,0,0,0-12.47,1.82c-3.61.89-8.28-.31-11.88-.7-2.7-.3-4.62.95-7.31.73-1.57-.13-2.83-.85-4.43-.64-1.13.15-1.83,1-3.21,1.08-1.82.11-2.59-.59-4.4.45-3.76,2.17-1.84,4.89,1.35,5.9a28.67,28.67,0,0,0,5.25,1c1.33.11,1,.55,2.32.29,2-.41,1.11-1.9,3.83-1.09s5.09-1.31,7.55-1.61c3.62-.45,7.37.08,11-1a17,17,0,0,1,6.67-.79c2,.08,3.74.25,5.7.47,2.21.26,6.48.23,6.66-3C538.7,271.44,534.13,272.45,531.87,272.38Z"/><path class="cls-1" d="M558.35,247.44c-1.79-.46-3.41.25-5.19.23-1.35,0-2.65-.38-4-.34-2.8.07-5.44.36-8.19.39-2.39,0-4,1-6.44.77a58.69,58.69,0,0,1-9.5-1.68,41.18,41.18,0,0,0-8.63-1.35c-2.91-.21-4.9-2.3-7.58-2.6-1.31-.15-2.1.58-3.5.23-1-.26-1.88-1.13-3-1.38-2.84-.62-8,.44-5.68,4.16,1.35,2.17,5.12,3.47,7.43,4.53,2.67,1.22,3.95.22,6.66.7,1.77.31,2.76,1.25,4.77,1.26,1.45,0,2.69-.5,4.09-.54,3-.08,6.06,1.05,9.07,1.19a47.49,47.49,0,0,0,10-.48c2.93-.49,6.43.06,9.54.2,2.7.13,4.94,1.12,7.62.66,1.45-.25,3.86-.6,4.62-2.07C561.34,249.52,560.07,247.89,558.35,247.44Z"/><path class="cls-1" d="M575,222.18c-.4,1.4-4.26,4.16-5.13,1.78-.68-1.9-.29-2.07-2.75-2.28a23.15,23.15,0,0,0-4.4.16c-3,.34-5.84.22-8.72.68-4.84.78-10-.62-14.65-2-3-.91-5.56-.84-8.55-1.26-1.85-.26-2.72-.93-4.3-1.6-1.76-.73-1.91-.32-3.68-.52-2.16-.24-3.9-1.39-6.16-1.67-3.13-.39-7.5,1.21-4.48,4.76,1.55,1.83,4.85,3,7,4.06,2.56,1.23,4.14.29,6.75.77,1.78.33,2.79,1.28,4.82,1.32,1.31,0,2.38-.33,3.65-.41,3.16-.19,6.49,1,9.69,1.22a49.61,49.61,0,0,0,10.14-.37c2.66-.4,5.73.15,8.55.22,2.46.06,4.77,1.14,7.15,1.18S580.76,224.63,575,222.18Z"/><path class="cls-1" d="M297.64,137c-1.87-1.86-4.38-2.71-6.33-4.45-2.61-2.33-5.27-4.41-8-6.56a34.1,34.1,0,0,1-4-4.12c-1.29-1.38-3-2-4.32-3.23a24.07,24.07,0,0,1-3.22-4.31c-4-6-5.91-12.7-9.31-18.9A21.05,21.05,0,0,1,259.8,88c-.17-1.35.2-2.52-.28-3.87s-1.8-2.34-2.13-3.86C256.77,77.4,258,68,252.85,68c-3.55,0-3.37,11.2-3.08,14,.31,3,2.59,5,3.14,8.1A21.73,21.73,0,0,0,256.66,99c4.16,6,6.83,12.69,11.57,18.45a32.53,32.53,0,0,0,5.31,5.31c2,1.59,2.95,3.34,4.66,5.24,2.6,2.88,5.89,5.2,8.54,8.08a18.78,18.78,0,0,0,7.9,5.29C298.3,142.68,300.69,140.08,297.64,137Z"/><path class="cls-1" d="M309.7,122.36c-2-2.4-3.84-4.62-6-6.9-1.25-1.31-1.75-3-3-4.31-.76-.78-1.91-1.14-2.67-2-1.85-2-3.06-5.24-4.23-7.66-1.6-3.33-2.29-7-4.11-10.17a20,20,0,0,1-2.7-7.2c-.38-2.05-1.69-2.58-2.31-4.23-.54-1.42-.19-2.81-.57-4.25-.49-1.86-2.26-5.08-4.46-5.23-3.69-.24-3.29,11.28-1.78,13.74.91,1.47,1.89,1.83,2.58,3.48.54,1.31.52,2.72,1.2,4.09,1.55,3.11,3.9,5.35,5.42,8.58a57.83,57.83,0,0,0,6.23,9.78c1.24,1.66,2.82,2.43,4.1,3.89s1.58,3.2,2.68,4.62c2,2.61,8.73,15.19,13.06,11.38C316.12,127.35,311.12,124.07,309.7,122.36Z"/><path class="cls-1" d="M328.29,100.13c-2.57-3.44-5-5.93-6.84-10-1.17-2.55-1.67-5.5-2.95-8-1.64-3.12-3.21-4.34-3.88-8.19-.22-1.56-1.87-1.57-2.58-2.67-.55-.86-.32-2-.78-3-.64-1.29-2.37-2.92-3.85-3-4.28-.13-2.62,7.68-1.5,10.32.47,1.12.88,1.21,1.49,2.11a10.11,10.11,0,0,1,1.71,2.73c.94,2.25,2.36,3.08,3.89,4.75,1.94,2.13,3.3,6.22,5,8.65,1.4,2,3.24,3.47,4.55,5.32,2.33,3.31,2.72,12,7.59,12.8C337.45,113.33,329.48,101.72,328.29,100.13Z"/><path class="cls-1" d="M385.21,100.06c-.76-1.45-2.1-2.83-3-4.24A36.65,36.65,0,0,0,379.85,92a102.63,102.63,0,0,0-6.56-8c-4-4-6.15-9.76-8.4-15-1.31-3-3.79-5-5-8-.47-1.15-.49-2.6-1-3.67-.87-1.8-3-2.27-3.51-4.18-1.16-4.88-9.69-11.25-8.17-2.43A43.75,43.75,0,0,0,349,57.1c.68,2,.69,1.86,2.07,3.43a10.54,10.54,0,0,1,2.31,3.55c1.54,3.17,4,4.91,5.89,7.65,2.18,3.11,3.83,6.48,6.1,9.57,4,5.38,8.72,9.88,11.39,16.22,1,2.48,2.38,6.26,5.29,7.25C385.49,106,386.67,102.84,385.21,100.06Z"/><path class="cls-1" d="M401.66,89.36c-.78-2.83-1.13-5-2.45-7.69-.68-1.38-1-3-1.72-4.35s-1.73-2-2.53-3.29c-2.82-4.42-2.88-10.42-4.91-15.16-1.22-2.84-3.14-5-4.18-8.06-.43-1.26-.15-2-1-3.34-.66-.44-1.31-.89-2-1.34a4.58,4.58,0,0,1-.78-2.37c-.8-2-1.65-3.75-3.73-4.81-5.54-2.82-4.09,4.35-3.07,7.26.65,1.75.56,3.86,1.65,5.33.72,1,2,.93,2.64,2.15.89,1.66.64,3.13,1.86,4.83,1.67,2.31,3.22,3.85,4.37,6.59a96.77,96.77,0,0,0,4.32,9c.64,1.16,1.36,2,2,3.09,1,1.63.92,2.49,1.48,4.33.71,2.34,1.86,4.34,2.13,6.83s.82,7.12,3.83,7.79C404.45,97.25,402.21,91.37,401.66,89.36Z"/><path class="cls-1" d="M424.56,91.44a73.55,73.55,0,0,0-.65-8c-.15-1.83.09-2.75-.42-4.55-.19-.69-.44-1-.58-1.61-1.12-5.05.94-11.09-.89-16-.87-2.35-2.33-4.22-2.92-6.81-.32-1.36-.19-2.16-1-3.36s-2.12-1.7-2.94-3c-1.16-1.9-1.48-3.11-3.68-4.22-3.83-1.93-5.73-.16-4.54,3.64.58,1.88,1.88,3.6,2.62,5.44,1,2.44,2.26,3,3.39,5.16,3,5.6,4.29,11.32,5.35,17.77.46,2.86,1.22,4.54,1,7.37s.44,5.41-.67,8.06c-.91,2.14-.06,7.56,3,7.68C425.5,99.12,424.5,93.78,424.56,91.44Z"/><path class="cls-1" d="M147.37,299.57c-4,1.79-8.47,2.1-12.69,3.18-3.89,1-7.3,2-11.31,2.31-2.82.19-5.2,1.38-8,1.74a47.85,47.85,0,0,1-9.42-.17,55.48,55.48,0,0,1-11.39-1.85c-4.67-1.35-9.74-2.27-14.26-3.9-3.86-1.4-5.92-4.27-9.3-6.14-1.2-.67-2.77-.69-3.91-1.46-1.72-1.16-2.48-3.13-3.8-4.67s-5.79-7-8.09-6.27c-3.37,1-.54,6.46.53,8.45a44.38,44.38,0,0,0,5,7.55c1.43,1.63,3,2.09,5,2.78,2.37.83,3.63,2.09,5.67,3.47C75,307,79.1,308,83.23,308.44s8.16,1.88,12.29,2.57a64.52,64.52,0,0,0,24.66-1.08c3.89-.87,7.88-.46,11.83-1.3,4.72-1,9.92-.89,14.5-2.21,2.17-.62,9-3,9.89-5.43C158.13,296.12,149.36,298.64,147.37,299.57Z"/><path class="cls-1" d="M153.41,287c-2.61.44-5.12.2-7.76.4-3.35.25-6.32.82-9.65.5-2.37-.23-4.48.49-6.81.38-6.2-.28-12.45-3.29-17.91-5.95-2.78-1.36-5.66-1.68-8.38-3.17-2.2-1.21-3.61-3.45-5.87-4.39-1.17-.49-2.4-.22-3.54-.91s-1.6-2-2.52-2.76a13.58,13.58,0,0,0-4.92-2.5c-8.58-2.11-.73,7.19,1.2,9.28s2.66,3.38,5.53,4.11,4.62,2.51,7.38,3.83,5.86,1.39,8.83,2.38a78.59,78.59,0,0,0,11.22,3.35,47.94,47.94,0,0,0,12.52.65c3.53-.29,7.43.62,11.08.61,2.8,0,17.87,1.93,16.92-4.13C160.22,285.48,155.46,286.69,153.41,287Z"/><path class="cls-1" d="M156.31,245.35c-2-.63-4.06-.1-6.13-.35s-3.9-.87-6-.95a45.39,45.39,0,0,1-6.91-.36c-2.35-.43-4.24,0-6.54-.25-3.71-.34-8-2.07-11.38-3.48-2.43-1-4.68-2.56-7.17-3.43-2.21-.77-4.24-.85-6.43-1.85a27.45,27.45,0,0,1,1.65,4.66,15.61,15.61,0,0,1,.44,2.44c-.17.93.24,1.2,1.22.8,1.83,1,5.24,1.64,7.33,2.32a66.94,66.94,0,0,0,9.7,2.16c2.92.51,5.75.05,8.53.47,4.76.73,9.66,2.12,14.39,3.22a14.31,14.31,0,0,0,6.85-.1C158.93,249.75,160.19,246.57,156.31,245.35Z"/><path class="cls-1" d="M85,228.57c-.52,2.66,4.34,5.81,6.21,7,.1-.82,2.14-7.54,2.21-7.51C91.3,227.2,85.68,225.07,85,228.57Z"/><path class="cls-1" d="M180.24,216.53c-2.16-1-5.13-1.46-7.45-2.32-2.8-1.05-5.74-1.07-8.58-1.8-1.45-.37-2.7-1.26-4.15-1.61s-2.75,0-4.13-.25a22.17,22.17,0,0,1-4.2-1.64c-6.17-2.62-11.7-6.31-17.94-8.48-2.57-.89-4.31-2.48-6.39-4.06s-4.48-1.25-6.64-2.73-3.7-2.83-6.44-3.11c-4.51-.45-5.27,2.49-2.22,5.4,1.52,1.32,3.2,2.51,4.69,3.85.83.74,1.49,1.94,2.5,2.44,1.44.71,2.95.1,4.39.59,2.12.71,3.75,2.71,6,3.52,2.91,1.06,5.72,1.24,8.59,2.54a86.59,86.59,0,0,0,19.27,5.95c5.32,1.05,10.55,4.16,15.62,6.16,1.87.74,6,1.61,7.84.86C184.31,220.52,182.63,217.65,180.24,216.53Z"/><path class="cls-1" d="M186.39,191.24c-5.37-2.12-11-3.71-16.39-5.81-4.65-1.81-9.07-2.61-13.76-4.72-3-1.36-5.9-2.79-8.78-4.4-3.06-1.71-5.79-2.37-9.06-3.37-2.94-.9-4.89-3-7.54-4.23-1.5-.67-2.92-.11-4.42-.51-1.32-.34-2.1-1.3-3.26-1.94a13.15,13.15,0,0,0-6.78-1.62c-4.63.26-4.27,3.36-1,5.64,1.72,1.06,3.55,2.05,5.23,3.16a24.12,24.12,0,0,0,2.77,2.11c1.62.75,2.91,0,4.53.34,2.45.48,4.59,2.52,7.08,3.28,3.42,1.05,6.61,1.21,10,2.64a96.25,96.25,0,0,0,19.25,6.07c2.89.56,6.23,2.63,9.08,3.77s5,3.24,7.76,4.4c2,.85,7.14,2.33,8.65.53C191.75,194.22,188.36,192,186.39,191.24Z"/><path class="cls-1" d="M158.67,152l-.85-.43a76.21,76.21,0,0,0-14.27-6.39c-4.16-1.34-7.75-4.83-12-5.42-1.79-.25-3.18-.1-4.9-.79-1.51-.61-2.78-1.63-4.39-2.09-1.93-.56-10.41-2.3-10.89,1.12-.44,3,7.62,5.54,9.48,6.46,3.27,1.62,5.13,2.78,8.79,3.06,4.51.33,8.37,3.68,12.95,4.6,5.09,1,9,3.11,13.76,5-.57-.5-1.15-1-1.74-1.46Z"/><path class="cls-1" d="M201.83,174.91c-1-1.38-3-1.83-4.43-2.66-4.33-2.57-7.81-5.53-12.56-7.53-3.46-1.46-6.12-3.63-9.74-4.63a27.09,27.09,0,0,1-5.94-2.57,5.16,5.16,0,0,1-2.48,3.92l3.08,1.38c2.46,1,5.11,1.29,7.38,2.68,3.53,2.18,7.27,4.32,10.67,6.71,2.2,1.55,14.15,12.39,16.44,7.27C201.76,179.07,202.82,176.27,201.83,174.91Z"/></g></g></svg>